<svg xmlns="http://www.w3.org/2000/svg" viewBox="0 0 406.86 228.66"><defs><style>.cls-1,.cls-2{fill:#fff;}.cls-2{fill-rule:evenodd;}</style></defs><g id="Camada_2" data-name="Camada 2"><g id="Layer_1" data-name="Layer 1"><path class="cls-1" d="M24.39,150.11C10.26,150.11,0,159.55,0,172.73S10.26,195.6,24.39,195.6s24.39-9.7,24.39-22.87-10.26-22.62-24.39-22.62Zm.19,12.23c5.07,0,9.12,4.37,9.12,10.45s-4.05,10.58-9.12,10.58-9.5-4.5-9.5-10.58,4.37-10.45,9.5-10.45Z"/><path class="cls-2" d="M219.88,61.67a17.07,17.07,0,1,1-16.49-11.92,10.49,10.49,0,0,0-.5,3.23,10.71,10.71,0,0,0,17,8.69Z"/><path class="cls-2" d="M300.1,20.12h0L226.39,92.77a34.54,34.54,0,1,1,.9-51.08h0l21.07,19.87L271,38.93,250.85,19.57a66.82,66.82,0,1,0-3.38,97.65h0l74.74-75.45C337.5,27.28,315,5.21,300.1,20.12Z"/><polygon class="cls-1" points="65.26 182.74 65.26 150.55 50.56 150.55 50.56 194.96 83.76 194.96 83.76 182.74 65.26 182.74 65.26 182.74"/><polygon class="cls-1" points="128.37 194.96 128.37 150.55 113.67 150.55 113.67 167.78 99.92 167.78 99.92 150.55 85.22 150.55 85.22 194.96 99.92 194.96 99.92 178.94 113.67 178.94 113.67 194.96 128.37 194.96 128.37 194.96"/><path class="cls-1" d="M162.58,188.69,164.8,195h15.65l-18.06-44.41H147.32L128.56,195h15.08l2.28-6.27ZM159,178.17h-9.25l4.69-13,4.56,13Z"/><path class="cls-1" d="M206.18,195h16.6L214,180.52c4.56-2.79,7-7.6,7-14.07,0-10.13-6.9-15.9-18.94-15.9H180.64V195h14.7V183.43h5.51L206.18,195Zm-10.84-22.68V161.7h6.78c3.17,0,5,1.9,5,5.2s-1.84,5.38-5,5.38Z"/><path class="cls-1" d="M258.11,159.67a19.57,19.57,0,0,0-6.15-4,18.65,18.65,0,0,0-23.41,7.76,18.66,18.66,0,0,0,0,18.66,18.75,18.75,0,0,0,6.78,6.75,18.38,18.38,0,0,0,9.41,2.5,18.75,18.75,0,0,0,7.16-1.43,20.42,20.42,0,0,0,6.21-4l2.66,2.85a25.49,25.49,0,0,1-7.54,4.82,22.35,22.35,0,0,1-8.68,1.77,22.92,22.92,0,0,1-19.86-11.27,21.9,21.9,0,0,1-3.08-11.34,21.38,21.38,0,0,1,3.11-11.28,23.18,23.18,0,0,1,20-11.15,23.12,23.12,0,0,1,8.68,1.68,23.4,23.4,0,0,1,7.34,4.65l-2.59,3Zm6.09-9h29.65v3.93H268.57v15.83h22.62v3.93H268.57V191h26.11V195H264.2V150.68ZM328.46,195l-9.57-14.44c-1.35.08-2.38.12-3.1.12H303.62V195h-4.37V150.68h16.54q8.29,0,12.83,3.83t4.53,10.87a15.27,15.27,0,0,1-2.66,9.18,13.89,13.89,0,0,1-7.61,5.13L333.53,195Zm-12.67-18.24q6.33,0,9.75-2.89c2.28-1.92,3.43-4.69,3.43-8.33s-1.15-6.25-3.43-8.11-5.53-2.78-9.75-2.78H303.62v22.11Zm16.86-26.11H366.3v4H351.66V195h-4.37V154.61H332.65v-4Zm51.08-.31a23.1,23.1,0,0,1,11.63,3,22.83,22.83,0,0,1,8.39,8.14,21.38,21.38,0,0,1,3.11,11.28,21.74,21.74,0,0,1-3.11,11.34,23.36,23.36,0,0,1-40,0,21.73,21.73,0,0,1-3.1-11.34,21.37,21.37,0,0,1,3.1-11.28,22.78,22.78,0,0,1,8.4-8.14,23,23,0,0,1,11.62-3Zm.06,3.93a18.81,18.81,0,0,0-16.21,9.18,17.85,17.85,0,0,0-2.54,9.32,18.16,18.16,0,0,0,2.54,9.37,18.69,18.69,0,0,0,6.84,6.81,18.33,18.33,0,0,0,9.37,2.51,18.09,18.09,0,0,0,9.29-2.51,18.84,18.84,0,0,0,6.81-6.81,18.15,18.15,0,0,0,2.53-9.37,17.85,17.85,0,0,0-2.53-9.32,18.65,18.65,0,0,0-6.81-6.71,18.25,18.25,0,0,0-9.29-2.47Z"/><path class="cls-1" d="M1.15,218.87v-.05A9.54,9.54,0,0,1,10.8,209a9.42,9.42,0,0,1,7.3,2.93L15.51,215a6.71,6.71,0,0,0-4.73-2.15c-3.12,0-5.37,2.66-5.37,5.93v0c0,3.26,2.19,6,5.37,6a6.59,6.59,0,0,0,4.86-2.23l2.59,2.69a9.33,9.33,0,0,1-7.59,3.4A9.48,9.48,0,0,1,1.15,218.87Z"/><path class="cls-1" d="M21.74,209.3h4.08v15.23h9.23v3.81H21.74Z"/><path class="cls-1" d="M38.56,209.3h4.07v19H38.56Zm3.33-6.3,3.46,1.55L42,207.81H38.9Z"/><path class="cls-1" d="M47.52,209.3h3.75L60,221V209.3h4v19H60.5l-9-12.1v12.1h-4Z"/><path class="cls-1" d="M68.85,209.3h4.08v19H68.85Z"/><path class="cls-1" d="M77,218.87v-.05A9.55,9.55,0,0,1,86.65,209a9.38,9.38,0,0,1,7.29,2.93L91.35,215a6.7,6.7,0,0,0-4.73-2.15c-3.12,0-5.37,2.66-5.37,5.93v0c0,3.26,2.2,6,5.37,6a6.61,6.61,0,0,0,4.87-2.23l2.59,2.69a9.34,9.34,0,0,1-7.59,3.4A9.48,9.48,0,0,1,77,218.87Z"/><path class="cls-1" d="M103.94,209.17h3.75l7.93,19.17h-4.25l-1.7-4.27h-7.82l-1.7,4.27H96Zm4.28,11.2-2.46-6.17-2.46,6.17Z"/><path class="cls-1" d="M117.2,225.56l2.41-3a8.39,8.39,0,0,0,5.53,2.31c1.66,0,2.67-.68,2.67-1.79v-.06c0-1.06-.64-1.6-3.73-2.42-3.73-1-6.14-2-6.14-5.82v0c0-3.45,2.7-5.74,6.48-5.74a10.54,10.54,0,0,1,6.88,2.42l-2.12,3.16a8.54,8.54,0,0,0-4.81-1.88c-1.56,0-2.38.73-2.38,1.66v.05c0,1.25.79,1.66,4,2.5,3.76,1,5.87,2.4,5.87,5.71v.06c0,3.78-2.8,5.9-6.79,5.9A11.6,11.6,0,0,1,117.2,225.56Z"/><path class="cls-1" d="M143,218.87v-.05a9.84,9.84,0,0,1,19.68,0v0a9.71,9.71,0,0,1-9.87,9.84A9.61,9.61,0,0,1,143,218.87Zm15.42,0v-.05a5.71,5.71,0,0,0-5.61-6,5.62,5.62,0,0,0-5.55,5.93v0a5.71,5.71,0,0,0,5.61,6A5.62,5.62,0,0,0,158.45,218.87Z"/><path class="cls-1" d="M166.59,209.3h14.09v3.81h-10v4h8.83V221h-8.83v7.37h-4.07Z"/><path class="cls-1" d="M188.5,213.16h-5.63V209.3h15.34v3.86h-5.64v15.18H188.5Z"/><path class="cls-1" d="M205.55,209.17h3.76l7.93,19.17H213l-1.69-4.27h-7.83l-1.69,4.27h-4.15Zm4.29,11.2-2.46-6.17-2.46,6.17Z"/><path class="cls-1" d="M220.36,209.3h4.07v15.23h9.23v3.81h-13.3Z"/><path class="cls-1" d="M237,209.3h4.39l4.87,8,4.86-8h4.39v19h-4V215.91L246.24,224h-.11L241,216v12.35h-4Z"/><path class="cls-1" d="M259.37,218.87v-.05a9.71,9.71,0,0,1,9.87-9.84,9.61,9.61,0,0,1,9.81,9.79v0a9.84,9.84,0,0,1-19.68.05Zm15.42,0v-.05a5.71,5.71,0,0,0-5.6-6,5.63,5.63,0,0,0-5.56,5.93v0a5.71,5.71,0,0,0,5.61,6A5.62,5.62,0,0,0,274.79,218.87Z"/><path class="cls-1" d="M282.93,209.3H287v15.23h9.23v3.81h-13.3Z"/><path class="cls-1" d="M298.74,218.87v-.05a9.84,9.84,0,0,1,19.67,0v0a9.84,9.84,0,0,1-19.67.05Zm15.41,0v-.05a5.71,5.71,0,0,0-5.6-6,5.63,5.63,0,0,0-5.56,5.93v0a5.71,5.71,0,0,0,5.61,6A5.62,5.62,0,0,0,314.15,218.87Zm-4-15.87,3.47,1.55-3.39,3.26h-3.06Z"/><path class="cls-1" d="M321.47,218.87v-.05a9.64,9.64,0,0,1,9.71-9.84,10,10,0,0,1,7.27,2.61l-2.57,3.18a6.7,6.7,0,0,0-4.84-1.93c-3,0-5.31,2.69-5.31,5.93v0c0,3.48,2.33,6,5.6,6a6.37,6.37,0,0,0,3.84-1.14V221h-4.1v-3.62h8v8.26a11.81,11.81,0,0,1-7.91,3A9.39,9.39,0,0,1,321.47,218.87Z"/><path class="cls-1" d="M343.47,209.3h4.07v19h-4.07Z"/><path class="cls-1" d="M351.61,218.87v-.05a9.54,9.54,0,0,1,9.65-9.84,9.42,9.42,0,0,1,7.3,2.93L366,215a6.74,6.74,0,0,0-4.74-2.15c-3.12,0-5.36,2.66-5.36,5.93v0c0,3.26,2.19,6,5.36,6a6.59,6.59,0,0,0,4.87-2.23l2.59,2.69a9.33,9.33,0,0,1-7.59,3.4A9.47,9.47,0,0,1,351.61,218.87Z"/><path class="cls-1" d="M378.55,209.17h3.75l7.94,19.17H386l-1.69-4.27h-7.83l-1.69,4.27h-4.15Zm4.28,11.2-2.46-6.17-2.46,6.17Z"/><path class="cls-1" d="M391.82,225.56l2.4-3a8.39,8.39,0,0,0,5.53,2.31c1.67,0,2.67-.68,2.67-1.79v-.06c0-1.06-.63-1.6-3.73-2.42-3.73-1-6.13-2-6.13-5.82v0c0-3.45,2.69-5.74,6.48-5.74a10.53,10.53,0,0,1,6.87,2.42l-2.11,3.16a8.57,8.57,0,0,0-4.82-1.88c-1.56,0-2.38.73-2.38,1.66v.05c0,1.25.8,1.66,4,2.5,3.75,1,5.87,2.4,5.87,5.71v.06c0,3.78-2.81,5.9-6.8,5.9A11.59,11.59,0,0,1,391.82,225.56Z"/></g></g></svg>